<svg viewBox="0 0 573 174" xmlns="http://www.w3.org/2000/svg"><path d="M207.871 0c18.463 0 33.453 14.99 33.453 33.453v140.36l-40-40H33.453C14.99 133.813 0 118.823 0 100.36V0h207.871z" fill="#e91e63"/><path d="M305.934 68.236h-8.545c-.26-3.418-1.554-6.226-3.881-8.423-2.328-2.197-5.201-3.296-8.619-3.296-4.589 0-8.146 1.652-10.668 4.956-2.523 3.304-3.785 8.081-3.785 14.331v1.709c0 6.087 1.254 10.775 3.76 14.063 2.507 3.287 6.087 4.931 10.742 4.931 3.223 0 6.039-.976 8.448-2.929 2.408-1.954 3.743-4.395 4.003-7.325h8.545c-.162 3.028-1.204 5.909-3.125 8.643-1.92 2.734-4.484 4.915-7.69 6.543a22.197 22.197 0 0 1-10.181 2.441c-7.194 0-12.915-2.4-17.163-7.202-4.248-4.801-6.372-11.369-6.372-19.702v-1.514c0-5.143.944-9.716 2.832-13.72 1.888-4.004 4.598-7.113 8.13-9.327 3.532-2.213 7.707-3.32 12.524-3.32 5.925 0 10.848 1.774 14.771 5.322 3.922 3.549 6.014 8.155 6.274 13.819zm117.862 34.668h-8.594l-.195-5.225c-3.516 4.134-8.675 6.201-15.479 6.201-5.631 0-9.92-1.635-12.866-4.907-2.946-3.271-4.435-8.114-4.468-14.526V50.072h9.033v34.131c0 8.007 3.256 12.011 9.766 12.011 6.901 0 11.491-2.571 13.769-7.715V50.072h9.034v52.832zm-95.83-26.905c0-5.175 1.017-9.83 3.051-13.964 2.035-4.135 4.867-7.325 8.496-9.571 3.63-2.246 7.772-3.369 12.427-3.369 7.194 0 13.013 2.49 17.456 7.471 4.444 4.98 6.665 11.605 6.665 19.873v.635c0 5.143-.984 9.757-2.954 13.842-1.969 4.086-4.785 7.268-8.447 9.546-3.662 2.279-7.87 3.418-12.622 3.418-7.162 0-12.964-2.49-17.407-7.47-4.444-4.981-6.665-11.573-6.665-19.776v-.635zm146.933 26.905h-8.301l-.439-5.664c-3.613 4.427-8.643 6.64-15.088 6.64-6.12 0-11.108-2.506-14.966-7.519-3.857-5.013-5.786-11.556-5.786-19.629v-.684c0-8.105 1.921-14.624 5.762-19.555 3.841-4.932 8.87-7.398 15.088-7.398 6.185 0 11.084 2.116 14.697 6.348V27.904h9.033v75zm-153.994 0h-9.033v-75h9.033v75zm235.234 0h-9.033V50.072h8.789l.147 6.103c2.962-4.72 7.161-7.08 12.597-7.08 1.758 0 3.093.228 4.004.684v8.398a27.048 27.048 0 0 0-4.443-.342c-5.924 0-9.945 2.523-12.061 7.569v37.5zm-31.669 0h-6.885l-19.141-52.832h9.229L521.1 90.648l13.086-40.576h9.229l-18.945 52.832zm-187.422-25.83c0 5.859 1.359 10.563 4.077 14.111s6.356 5.322 10.913 5.322c4.59 0 8.236-1.798 10.937-5.395 2.702-3.597 4.053-8.635 4.053-15.113 0-5.794-1.375-10.489-4.126-14.086-2.751-3.597-6.404-5.396-10.962-5.396-4.459 0-8.056 1.774-10.791 5.322-2.734 3.548-4.101 8.627-4.101 15.235zm102.304 0c0 5.989 1.237 10.677 3.711 14.062 2.474 3.386 5.892 5.078 10.254 5.078 5.729 0 9.912-2.571 12.549-7.715V64.232c-2.702-4.981-6.852-7.471-12.451-7.471-4.427 0-7.878 1.709-10.352 5.127-2.474 3.418-3.711 8.48-3.711 15.186z"/><path d="M164.489 44.991V19.85h38.267v.009l.042-.001c10.137 0 18.367 7.854 18.367 17.528l-.001.192v76.253h-56.675v-4.068c-5.694 3.151-12.295 4.954-19.331 4.954-11.963 0-22.669-5.211-29.796-13.4l-4.254 12.499-65.925-.028c-.314.01-.63.015-.947.015-13.452 0-24.374-9.035-24.374-20.164l.001-.219V71.329h-7.697V40.994h7.697V28.025h28.433c3.273-4.825 8.963-8.02 15.429-8.02 10.137 0 18.367 7.853 18.367 17.527 0 .858-.065 1.702-.19 2.527h61.91c.447-.015.895-.022 1.346-.022 7.036 0 13.637 1.803 19.331 4.954z" fill="#fff"/><path d="M43.986 37.999v12.989h9.033v10.351h-9.033v26.367c0 1.954.374 3.353 1.123 4.2.748.846 2.181 1.269 4.296 1.269 1.563 0 2.946-.114 4.151-.342v10.694a29.06 29.06 0 0 1-8.545 1.269c-9.896 0-14.941-4.996-15.137-14.99V61.339h-7.715V50.988h7.715V37.999h14.112zm76.015 38.916c0-5.24 1.009-9.912 3.028-14.013 2.018-4.102 4.923-7.276 8.715-9.522 3.793-2.246 8.195-3.369 13.208-3.369 7.129 0 12.948 2.181 17.456 6.543 4.509 4.362 7.024 10.287 7.544 17.774l.098 3.613c0 8.105-2.262 14.608-6.787 19.507-4.525 4.899-10.596 7.348-18.213 7.348-7.617 0-13.696-2.441-18.237-7.324-4.541-4.883-6.812-11.523-6.812-19.922v-.635zm68.633 26.905h-14.16v-75h14.16v75zm-117.861 0h-14.16V50.988h14.16v52.832zm139.375 0h-14.16V50.988h14.16v52.832zm-106.241 0H90.431L72.609 50.988h14.746l9.814 35.595 9.815-35.595h14.746l-17.823 52.832zm30.206-25.903c0 5.021.944 8.86 2.832 11.517s4.589 3.985 8.105 3.985c3.418 0 6.087-1.312 8.008-3.936 1.92-2.625 2.881-6.822 2.881-12.593 0-4.923-.961-8.737-2.881-11.443-1.921-2.706-4.623-4.059-8.106-4.059-3.45 0-6.119 1.345-8.007 4.035-1.888 2.689-2.832 6.854-2.832 12.494zM55.782 37.316c0-2.116.708-3.858 2.124-5.225 1.416-1.367 3.345-2.051 5.787-2.051 2.408 0 4.329.684 5.761 2.051 1.433 1.367 2.149 3.109 2.149 5.225 0 2.148-.725 3.906-2.173 5.273-1.449 1.367-3.361 2.051-5.737 2.051-2.377 0-4.289-.684-5.738-2.051-1.448-1.367-2.173-3.125-2.173-5.273zm139.375 0c0-2.116.708-3.858 2.124-5.225 1.416-1.367 3.345-2.051 5.787-2.051 2.408 0 4.329.684 5.761 2.051 1.433 1.367 2.149 3.109 2.149 5.225 0 2.148-.725 3.906-2.173 5.273-1.449 1.367-3.361 2.051-5.737 2.051-2.377 0-4.289-.684-5.738-2.051-1.448-1.367-2.173-3.125-2.173-5.273z"/></svg>