<?xml version="1.0" encoding="UTF-8" standalone="no"?>
<!DOCTYPE svg PUBLIC "-//W3C//DTD SVG 1.1//EN" "http://www.w3.org/Graphics/SVG/1.1/DTD/svg11.dtd">
<svg width="100%" height="100%" viewBox="0 0 1920 1080" version="1.1" xmlns="http://www.w3.org/2000/svg" xmlns:xlink="http://www.w3.org/1999/xlink" xml:space="preserve" xmlns:serif="http://www.serif.com/" style="fill-rule:evenodd;clip-rule:evenodd;stroke-linejoin:round;stroke-miterlimit:2;">
    <g transform="matrix(2.22026,0,0,1.63966,-416.383,-167.326)">
        <rect x="187.538" y="102.049" width="864.763" height="658.675"/>
    </g>
    <g transform="matrix(1,0,0,1,-28.599,186.032)">
        <g transform="matrix(384,0,0,384,486.568,498.062)">
            <path d="M0.044,-0.274C0.044,-0.325 0.054,-0.37 0.073,-0.41C0.092,-0.451 0.12,-0.482 0.155,-0.504C0.19,-0.527 0.23,-0.538 0.275,-0.538C0.319,-0.538 0.359,-0.527 0.394,-0.505C0.429,-0.484 0.457,-0.453 0.476,-0.413C0.496,-0.373 0.506,-0.327 0.506,-0.277L0.506,-0.254C0.506,-0.203 0.497,-0.158 0.478,-0.118C0.458,-0.078 0.431,-0.046 0.396,-0.024C0.36,-0.001 0.32,0.01 0.276,0.01C0.231,0.01 0.191,-0.001 0.156,-0.023C0.121,-0.046 0.093,-0.077 0.074,-0.116C0.054,-0.156 0.044,-0.201 0.044,-0.251L0.044,-0.274ZM0.07,-0.254C0.07,-0.21 0.079,-0.17 0.096,-0.133C0.114,-0.096 0.138,-0.068 0.169,-0.047C0.2,-0.027 0.236,-0.017 0.276,-0.017C0.336,-0.017 0.385,-0.039 0.423,-0.084C0.461,-0.13 0.48,-0.188 0.48,-0.259L0.48,-0.274C0.48,-0.318 0.471,-0.358 0.454,-0.395C0.436,-0.431 0.412,-0.46 0.381,-0.481C0.35,-0.501 0.314,-0.512 0.275,-0.512C0.215,-0.512 0.166,-0.489 0.127,-0.443C0.089,-0.397 0.07,-0.339 0.07,-0.27L0.07,-0.254Z" style="fill:white;fill-opacity:0.1;fill-rule:nonzero;"/>
        </g>
        <g transform="matrix(384,0,0,384,697.88,498.062)">
            <path d="M0.124,0L0.124,-0.502L0.032,-0.502L0.032,-0.528L0.124,-0.528L0.124,-0.605C0.124,-0.654 0.137,-0.692 0.161,-0.719C0.185,-0.747 0.219,-0.76 0.262,-0.76C0.286,-0.76 0.307,-0.757 0.325,-0.752L0.321,-0.727C0.304,-0.731 0.285,-0.734 0.263,-0.734C0.228,-0.734 0.2,-0.723 0.18,-0.7C0.16,-0.677 0.15,-0.645 0.15,-0.604L0.15,-0.528L0.405,-0.528L0.405,-0.605C0.406,-0.654 0.418,-0.692 0.442,-0.719C0.466,-0.747 0.5,-0.76 0.543,-0.76C0.583,-0.76 0.64,-0.75 0.713,-0.73L0.713,0L0.687,0L0.687,-0.713C0.625,-0.727 0.577,-0.734 0.544,-0.734C0.509,-0.734 0.482,-0.723 0.462,-0.7C0.442,-0.677 0.432,-0.645 0.432,-0.604L0.432,-0.528L0.571,-0.528L0.571,-0.502L0.432,-0.502L0.432,0L0.405,0L0.405,-0.502L0.15,-0.502L0.15,0L0.124,0Z" style="fill:white;fill-opacity:0.1;fill-rule:nonzero;"/>
        </g>
        <g transform="matrix(384,0,0,384,1005.94,498.062)">
            <path d="M0.117,0L0.09,0L0.09,-0.528L0.117,-0.528L0.117,0ZM0.077,-0.693C0.077,-0.701 0.079,-0.707 0.084,-0.713C0.09,-0.718 0.096,-0.721 0.104,-0.721C0.111,-0.721 0.117,-0.718 0.123,-0.713C0.128,-0.707 0.131,-0.701 0.131,-0.693C0.131,-0.686 0.128,-0.68 0.123,-0.674C0.117,-0.669 0.111,-0.667 0.104,-0.667C0.096,-0.667 0.09,-0.669 0.084,-0.674C0.079,-0.68 0.077,-0.686 0.077,-0.693Z" style="fill:white;fill-opacity:0.1;fill-rule:nonzero;"/>
        </g>
        <g transform="matrix(384,0,0,384,1085.07,498.062)">
            <path d="M0.11,-0.405C0.128,-0.446 0.153,-0.479 0.187,-0.502C0.22,-0.526 0.257,-0.538 0.298,-0.538C0.354,-0.538 0.397,-0.522 0.424,-0.49C0.452,-0.458 0.465,-0.41 0.466,-0.345L0.466,0L0.439,0L0.439,-0.345C0.439,-0.402 0.428,-0.444 0.405,-0.471C0.382,-0.498 0.346,-0.512 0.296,-0.512C0.251,-0.512 0.211,-0.496 0.178,-0.463C0.145,-0.431 0.122,-0.389 0.11,-0.338L0.11,0L0.084,0L0.084,-0.528L0.11,-0.528L0.11,-0.405Z" style="fill:white;fill-opacity:0.1;fill-rule:nonzero;"/>
        </g>
        <g transform="matrix(384,0,0,384,1295.26,498.062)">
            <path d="M0.274,0.01C0.231,0.01 0.192,-0.002 0.156,-0.025C0.121,-0.048 0.093,-0.079 0.073,-0.119C0.053,-0.159 0.042,-0.204 0.042,-0.252L0.042,-0.274C0.042,-0.323 0.052,-0.368 0.072,-0.409C0.091,-0.449 0.118,-0.481 0.152,-0.504C0.187,-0.527 0.224,-0.538 0.264,-0.538C0.323,-0.538 0.371,-0.517 0.409,-0.475C0.446,-0.433 0.465,-0.378 0.465,-0.31L0.465,-0.282L0.069,-0.282L0.069,-0.253C0.069,-0.21 0.078,-0.17 0.096,-0.134C0.114,-0.097 0.139,-0.069 0.171,-0.048C0.202,-0.027 0.237,-0.017 0.274,-0.017C0.309,-0.017 0.34,-0.023 0.365,-0.034C0.389,-0.046 0.411,-0.064 0.431,-0.089L0.449,-0.076C0.41,-0.019 0.351,0.01 0.274,0.01ZM0.264,-0.512C0.213,-0.512 0.169,-0.493 0.133,-0.454C0.097,-0.416 0.076,-0.367 0.07,-0.308L0.438,-0.308L0.438,-0.314C0.438,-0.35 0.431,-0.384 0.416,-0.414C0.401,-0.445 0.38,-0.469 0.353,-0.486C0.327,-0.503 0.297,-0.512 0.264,-0.512Z" style="fill:white;fill-opacity:0.1;fill-rule:nonzero;"/>
        </g>
    </g>
</svg>
